<svg width="49" height="49" viewBox="0 0 49 49" fill="none" xmlns="http://www.w3.org/2000/svg">
<rect x="0.583333" y="0.583333" width="47.8333" height="47.8333" rx="6.41667" stroke="#D9D9D9" stroke-width="1.16667"/>
<path d="M33.2949 22.406C33.2949 29.735 23.8718 36.0171 23.8718 36.0171C23.8718 36.0171 14.4487 29.735 14.4487 22.406C14.4487 19.9068 15.4415 17.51 17.2087 15.7429C18.9759 13.9757 21.3727 12.9829 23.8718 12.9829C26.371 12.9829 28.7678 13.9757 30.5349 15.7429C32.3021 17.51 33.2949 19.9068 33.2949 22.406Z" stroke="black" stroke-width="1.25641" stroke-linecap="round" stroke-linejoin="round"/>
<path d="M23.8719 25.5469C25.6066 25.5469 27.0129 24.1407 27.0129 22.4059C27.0129 20.6712 25.6066 19.2649 23.8719 19.2649C22.1371 19.2649 20.7308 20.6712 20.7308 22.4059C20.7308 24.1407 22.1371 25.5469 23.8719 25.5469Z" stroke="black" stroke-width="1.25641" stroke-linecap="round" stroke-linejoin="round"/>
</svg>
