<svg width="49" height="49" viewBox="0 0 49 49" fill="none" xmlns="http://www.w3.org/2000/svg">
<rect x="0.589631" y="0.589631" width="47.8207" height="47.8207" rx="6.48594" stroke="#D9D9D9" stroke-width="1.17926"/>
<g clip-path="url(#clip0_338_1060)">
<path d="M27.0654 17.1709C28.088 17.3705 29.0279 17.8706 29.7646 18.6074C30.5014 19.3441 31.0015 20.284 31.201 21.3066M27.0654 12.9829C29.19 13.2189 31.1713 14.1704 32.6839 15.6811C34.1964 17.1917 35.1504 19.1718 35.3891 21.2962M34.3421 29.6513V32.7923C34.3433 33.0839 34.2835 33.3725 34.1667 33.6397C34.0499 33.9069 33.8786 34.1467 33.6637 34.3438C33.4488 34.541 33.1952 34.691 32.9189 34.7845C32.6427 34.8779 32.35 34.9126 32.0596 34.8863C28.8378 34.5363 25.743 33.4353 23.0239 31.672C20.4942 30.0645 18.3494 27.9197 16.7419 25.39C14.9724 22.6585 13.8712 19.5487 13.5275 16.3124C13.5014 16.0229 13.5358 15.7311 13.6286 15.4556C13.7214 15.18 13.8705 14.9269 14.0665 14.7122C14.2625 14.4975 14.5011 14.3259 14.767 14.2085C15.0329 14.091 15.3204 14.0302 15.6111 14.0299H18.7521C19.2602 14.0249 19.7528 14.2049 20.1381 14.5362C20.5234 14.8675 20.775 15.3276 20.8461 15.8308C20.9787 16.836 21.2246 17.8229 21.579 18.7729C21.7199 19.1476 21.7504 19.5549 21.6669 19.9464C21.5834 20.338 21.3894 20.6974 21.1079 20.9821L19.7782 22.3118C21.2687 24.933 23.439 27.1033 26.0602 28.5938L27.3899 27.2641C27.6746 26.9826 28.034 26.7886 28.4256 26.7051C28.8171 26.6216 29.2244 26.6521 29.5991 26.793C30.549 27.1474 31.536 27.3933 32.5412 27.5259C33.0498 27.5976 33.5143 27.8538 33.8463 28.2457C34.1784 28.6376 34.3548 29.1378 34.3421 29.6513Z" stroke="black" stroke-width="1.25641" stroke-linecap="round" stroke-linejoin="round"/>
</g>
<defs>
<clipPath id="clip0_338_1060">
<rect width="25.1282" height="25.1282" fill="white" transform="translate(11.3079 11.9358)"/>
</clipPath>
</defs>
</svg>
