<svg width="49" height="49" viewBox="0 0 49 49" fill="none" xmlns="http://www.w3.org/2000/svg">
<rect x="0.583333" y="0.583333" width="47.8333" height="47.8333" rx="6.41667" stroke="#D9D9D9" stroke-width="1.16667"/>
<path d="M23.8717 34.9702C29.6542 34.9702 34.3418 30.2826 34.3418 24.5001C34.3418 18.7176 29.6542 14.03 23.8717 14.03C18.0892 14.03 13.4016 18.7176 13.4016 24.5001C13.4016 30.2826 18.0892 34.9702 23.8717 34.9702Z" stroke="black" stroke-width="1.25641" stroke-linecap="round" stroke-linejoin="round"/>
<path d="M13.4016 24.5H34.3418" stroke="black" stroke-width="1.25641" stroke-linecap="round" stroke-linejoin="round"/>
<path d="M23.8719 14.03C26.4907 16.8971 27.979 20.6178 28.0599 24.5001C27.979 28.3824 26.4907 32.1031 23.8719 34.9702C21.253 32.1031 19.7647 28.3824 19.6838 24.5001C19.7647 20.6178 21.253 16.8971 23.8719 14.03Z" stroke="black" stroke-width="1.25641" stroke-linecap="round" stroke-linejoin="round"/>
</svg>
